<svg xmlns="http://www.w3.org/2000/svg" viewBox="0 0 275.5 275.5"><defs><style>.cls-1{fill:#d96313;stroke:#fff;stroke-miterlimit:10;stroke-width:18px;}.cls-2{fill:#fff;}</style></defs><title>Recurso 1</title><g id="Capa_2" data-name="Capa 2"><g id="Capa_1-2" data-name="Capa 1"><circle class="cls-1" cx="137.75" cy="137.75" r="128.75"/><path class="cls-2" d="M78.43,118.06c.52,1.33.95,2.69,1.49,4a73.18,73.18,0,0,1,3,7.75,27.53,27.53,0,0,0,1.28,3c1,2.46,2,4.91,2.93,7.38a37.75,37.75,0,0,1,1.47,4.05c.53,1.94,1.57,3.67,2.1,5.63a64.91,64.91,0,0,0,2.57,6.41c.38.94.59,2,1,2.9.6,1.53,1.31,3,1.92,4.54s1.08,2.93,1.64,4.38c.43,1.13.89,2.24,1.35,3.35.28.7.85,1.4.81,2.08a2.85,2.85,0,0,0,.72,2c.53.65.24,1.43.62,2a32,32,0,0,1,2.11,5.06c.66,1.61,1.45,3.17,2.25,4.71a4.06,4.06,0,0,0,1.15,1.29,9.84,9.84,0,0,0,7,1.9c1.23-.13,2.46-.23,3.7-.24a5.2,5.2,0,0,0,3.59-1.48,10.23,10.23,0,0,0,2.58-3.5c.38-.93.74-1.9,1.16-2.83,1.29-2.89,2.51-5.81,3.74-8.73a24.52,24.52,0,0,1,1.6-3.83c1.19-1.89,1.4-4.16,2.58-6a16.93,16.93,0,0,0,1.1-2.54c.88-2.11,1.77-4.22,2.77-6.6.35.71.59,1.12.76,1.57.32.78.57,1.59.88,2.37.65,1.67,1.33,3.32,2,5,.52,1.32.91,2.72,1.55,4,1.16,2.29,1.68,4.8,2.76,7.11.73,1.58,1.31,3.22,1.95,4.84a25.83,25.83,0,0,1,1.32,3.52,14.63,14.63,0,0,0,3,5.75c1.52,2,3.78,2.42,6.15,2.43.4,0,.81-.1,1.21-.07a13.84,13.84,0,0,0,5.32-.42,3.7,3.7,0,0,0,1.31-.58A10.88,10.88,0,0,0,168.1,186c.86-2.11,2-4.1,2.81-6.24.64-1.74,1.66-3.33,2.07-5.16a2.81,2.81,0,0,1,.84-1.77c.28-.22.36-.71.49-1.09.19-.54.3-1.12.53-1.65,1.3-3,2.62-6.05,3.93-9.07.66-1.52,1.32-3,1.95-4.57.85-2,1.65-4.06,2.52-6.08,1.06-2.44,2.17-4.87,3.25-7.31.52-1.18,1-2.38,1.51-3.57.57-1.36,1.15-2.71,1.7-4.07.43-1.06.78-2.14,1.23-3.18,1.17-2.64,2.41-5.26,3.57-7.9,1-2.32,2-4.68,2.95-7,.68-1.61,1.36-3.22,2-4.83a6.53,6.53,0,0,1,.39-1.13,16.33,16.33,0,0,0,2.22-5,4.38,4.38,0,0,1,.41-1,22.65,22.65,0,0,0,2.06-5.08c.18-.63.41-1.24.67-2a13.86,13.86,0,0,0-1.56-.21q-3.51-.14-7-.21c-1.39,0-2.79,0-4.18,0a1.08,1.08,0,0,0-1.16.69c-.72,1.68-1.55,3.32-2.28,5-1.45,3.33-2.84,6.68-4.28,10-.59,1.35-1.29,2.65-1.85,4-1.28,3.06-2.5,6.14-3.75,9.2-.09.21-.23.39-.32.6-.69,1.5-1.41,3-2.05,4.52s-1.1,2.92-1.71,4.35c-1,2.39-2.13,4.73-3.15,7.12-.71,1.63-1.3,3.32-2,5-1.19,2.79-2.44,5.57-3.63,8.36-.86,2-1.6,4.09-2.53,6.07a85.41,85.41,0,0,0-3.73,8.69c-.28.82-.71,1.6-1.18,2.61a6.75,6.75,0,0,1-.81-1.12c-.94-2.31-1.85-4.64-2.77-7-.63-1.58-1.28-3.15-1.92-4.72-.7-1.74-1.43-3.46-2.1-5.21-.58-1.49-1.07-3-1.63-4.5-.44-1.16-1-2.28-1.4-3.44s-.67-2.1-1.07-3.13c-.88-2.29-1.8-4.56-2.74-6.83a1.77,1.77,0,0,1,.09-1.54c.63-1.38,1.21-2.78,1.8-4.17.24-.58.41-1.19.66-1.76.61-1.35,1.27-2.67,1.85-4,1-2.38,2-4.79,3-7.18.4-1,.83-1.91,1.23-2.88.28-.65.51-1.32.79-2,.63-1.47,1.28-2.93,1.92-4.39a17.07,17.07,0,0,0,1.28-7.48,21.47,21.47,0,0,0-1.81-7.53,12.49,12.49,0,0,0-1.43-2.58,19.06,19.06,0,0,0-2.43-2.82A15.08,15.08,0,0,0,147,86.6a1.69,1.69,0,0,1-.36-.17,15.06,15.06,0,0,0-7.37-2.17,21.23,21.23,0,0,0-7.84.85,16.73,16.73,0,0,0-6.5,3.63,18.81,18.81,0,0,0-4,4.64A19.89,19.89,0,0,0,118.6,100c-.12.79-.31,1.58-.44,2.37a4.12,4.12,0,0,0,0,1c.07.63.26,1.24.28,1.86a17.62,17.62,0,0,0,1.58,6.37c1.3,3,2.29,6.1,3.56,9.1,1.06,2.49,2.12,5,3,7.6.75,2.38,1.81,4.66,2.76,7a3.73,3.73,0,0,1-.25,3.81,5.55,5.55,0,0,0-.48,1.11c-.62,1.48-1.18,3-1.85,4.45-1.16,2.58-2.29,5.16-3.36,7.78s-2.27,5.23-3.43,7.83c-.32.72-.74,1.4-1,2.13-.42,1-.72,2.11-1.15,3.13-.85,2.07-1.75,4.12-2.64,6.17-.21.47-.34,1.06-1.22,1.08-.48-1.28-.94-2.51-1.41-3.74-.66-1.76-1.3-3.52-2-5.27-.79-2-1.63-4-2.42-6.09-.44-1.17-.79-2.38-1.24-3.55-.61-1.58-1.28-3.14-1.9-4.72-.85-2.15-1.68-4.32-2.52-6.48-.38-.95-.8-1.88-1.17-2.83s-.63-1.86-1-2.77c-.59-1.46-1.28-2.87-1.84-4.33-.67-1.75-1.26-3.53-1.88-5.3-.23-.63-.45-1.26-.69-1.88-.7-1.74-1.42-3.48-2.1-5.23s-1.26-3.34-1.89-5c-.24-.62-.48-1.25-.74-1.86-.33-.78-.74-1.53-1-2.33-.37-1-.6-2.13-1-3.16-.73-2-1.53-3.89-2.31-5.82S85.26,98.82,84.49,97a2,2,0,0,0-2-1.3c-2.37,0-4.75-.11-7.13-.14-1.35,0-2.7,0-4,0-1,0-1.18.31-.94,1.27a13.92,13.92,0,0,0,.45,1.56q2,5.39,4.08,10.75a15.23,15.23,0,0,0,.78,2,4.93,4.93,0,0,1,1,2.72c0,.2.15.41.24.61C77.42,115.68,78,116.86,78.43,118.06Zm59.71-20.38a5.4,5.4,0,0,1,3.54,1.43c1.51,1.55,2.58,3.31,1.94,5.55a49.37,49.37,0,0,1-2,5.38c-1.15,2.75-2.41,5.46-3.62,8.18-.09.21-.21.4-.33.63-1.05-.08-1.29-.79-1.53-1.46-.42-1.18-.78-2.38-1.22-3.55-.85-2.21-1.78-4.39-2.59-6.62a10.52,10.52,0,0,1-.91-3.18A6.07,6.07,0,0,1,138.14,97.68Z"/></g></g></svg>