<?xml version="1.0" encoding="iso-8859-1"?>
<!-- Generator: Adobe Illustrator 19.0.0, SVG Export Plug-In . SVG Version: 6.00 Build 0)  -->
<svg version="1.1" id="Capa_1" xmlns="http://www.w3.org/2000/svg" xmlns:xlink="http://www.w3.org/1999/xlink" x="0px" y="0px"
	 viewBox="0 0 512 512" style="enable-background:new 0 0 512 512;" xml:space="preserve">
<polygon style="fill:#C1B8B7;" points="195.666,223.945 171.618,63.627 500.271,7.515 275.825,127.754 "/>
<polygon style="fill:#DAD5D4;" points="211.697,103.706 195.666,223.945 500.271,7.515 "/>
<g>
	<polygon style="fill:#E6E3E2;" points="211.697,103.706 372.016,191.882 500.271,7.515 	"/>
	<polygon style="fill:#E6E3E2;" points="171.618,63.627 67.411,7.515 500.271,7.515 	"/>
</g>
<path d="M507.011,10.829C509.451,5.877,505.69,0,500.216,0H67.704c-2.296,0-4.554,0.909-6.028,2.668
	C58.454,6.513,59.888,12,63.847,14.132l100.88,54.32c0.01,0.005,0.017,0.015,0.019,0.027l23.488,156.581
	c0.841,5.425,7.283,8.206,11.784,5.011l98.521-70.002c0.011-0.008,0.026-0.009,0.039-0.002l69.817,38.399
	c3.33,1.83,7.622,0.824,9.79-2.294l73.41-105.526c2.37-3.407,1.529-8.091-1.878-10.461c-3.408-2.371-8.089-1.529-10.461,1.878
	L369.73,182.01c-0.011,0.015-0.031,0.02-0.047,0.011l-139.234-76.578c-0.028-0.015-0.024-0.056,0.006-0.067l250.62-83.54
	c0.033-0.011,0.061,0.027,0.041,0.055l-20.778,29.867c-2.363,3.396-1.813,8.19,1.523,10.636c3.421,2.508,8.209,1.692,10.617-1.767
	l33.964-48.822C506.654,11.499,506.845,11.165,507.011,10.829z M411.177,15.102L172.915,55.781c-0.008,0.001-0.016,0-0.023-0.004
	L97.345,15.099c-0.033-0.018-0.021-0.069,0.017-0.069h313.809C411.216,15.03,411.221,15.095,411.177,15.102z M283.884,152.045
	l-78.418,55.717c-0.026,0.018-0.061-0.003-0.057-0.035l12.279-92.093c0.003-0.025,0.031-0.039,0.054-0.027l66.138,36.376
	C283.904,151.996,283.906,152.03,283.884,152.045z M209.321,96.577c-2.687,0.9-4.698,3.324-5.073,6.136l-8.987,67.399
	c-0.006,0.042-0.066,0.042-0.072,0.001L180.147,69.83c-0.003-0.02,0.01-0.038,0.03-0.041l224.019-38.247
	c0.044-0.008,0.06,0.056,0.018,0.071L209.321,96.577z"/>
<path d="M139.128,300.76c-2.108,0.031-4.255,0.117-6.38,0.255c-4.142,0.268-7.282,3.842-7.015,7.984
	c0.257,3.977,3.563,7.031,7.492,7.031c0.163,0,0.327-0.005,0.492-0.016c1.879-0.121,3.775-0.197,5.636-0.225
	c4.15-0.062,7.464-3.477,7.402-7.626C146.693,304.012,143.258,300.675,139.128,300.76z"/>
<path d="M176.059,306.058c-3.897-1.264-7.99-2.321-12.164-3.139c-4.07-0.801-8.021,1.855-8.821,5.929
	c-0.799,4.072,1.856,8.022,5.929,8.821c3.585,0.703,7.09,1.607,10.416,2.686c3.898,1.263,8.203-0.933,9.468-4.828
	C182.168,311.579,180.005,307.339,176.059,306.058z"/>
<path d="M91.678,384.286c4.091-0.701,6.839-4.586,6.137-8.676c-0.587-3.427-0.927-6.961-1.009-10.504
	c-0.096-4.15-3.548-7.43-7.687-7.339c-4.149,0.096-7.435,3.538-7.339,7.687c0.099,4.275,0.51,8.547,1.221,12.695
	C83.693,382.184,87.641,384.98,91.678,384.286z"/>
<path d="M134.477,422.021c-3.176-1.126-6.266-2.583-9.183-4.33c-3.562-2.131-8.176-0.973-10.308,2.588
	c-2.131,3.561-0.973,8.176,2.588,10.308c3.771,2.257,7.766,4.14,11.88,5.599c4.068,1.442,8.626-0.95,9.762-5.106
	C140.239,427.336,138.133,423.318,134.477,422.021z"/>
<path d="M134.626,289.495c2.688-2.504,5.512-4.933,8.392-7.217c3.251-2.58,3.796-7.307,1.215-10.558s-7.308-3.795-10.558-1.215
	c-3.189,2.53-6.316,5.219-9.292,7.994c-3.037,2.829-3.205,7.584-0.377,10.621C126.795,292.114,131.63,292.286,134.626,289.495z"/>
<path d="M104.478,395.375c-1.941-3.668-6.49-5.067-10.157-3.127c-3.668,1.942-5.068,6.489-3.127,10.157
	c2.032,3.841,4.388,7.501,7,10.879c2.702,3.495,7.998,3.873,11.176,0.8c2.715-2.626,3.023-7.007,0.713-9.993
	C107.995,401.39,106.11,398.458,104.478,395.375z"/>
<path d="M91.965,349.687c3.31,0,6.342-2.203,7.248-5.55c0.562-2.071,1.636-5.49,3.565-10.018c1.627-3.819-0.149-8.232-3.968-9.859
	c-3.818-1.627-8.232,0.15-9.859,3.968c-1.794,4.208-3.26,8.35-4.243,11.975c-1.086,4.006,1.281,8.133,5.287,9.22
	C90.653,349.602,91.314,349.687,91.965,349.687z"/>
<path d="M118.379,295.259c-3.275-2.553-7.996-1.968-10.547,1.306c-2.514,3.224-4.921,6.58-7.151,9.974
	c-2.281,3.468-1.318,8.128,2.15,10.408c3.424,2.251,8.158,1.27,10.408-2.15c2.01-3.057,4.179-6.082,6.446-8.989
	C122.237,302.534,121.652,297.811,118.379,295.259z"/>
<path d="M188.477,319.109c-2.386,3.396-1.567,8.083,1.829,10.469c2.874,2.019,5.49,4.246,7.775,6.619
	c2.842,2.949,7.676,3.039,10.626,0.198c2.989-2.88,3.077-7.637,0.198-10.626c-2.951-3.063-6.302-5.919-9.96-8.489
	C195.551,314.894,190.864,315.713,188.477,319.109z"/>
<path d="M164.879,423.539c-3.132,0.671-6.413,1.115-9.762,1.321l-0.584,0.033c-4.145,0.206-7.339,3.733-7.133,7.879
	c0.199,4.019,3.52,7.142,7.499,7.142c0.125,0,0.253-0.003,0.379-0.009l0.767-0.043c4.088-0.25,8.12-0.797,11.986-1.625
	c4.058-0.871,6.642-4.865,5.772-8.924C172.932,425.253,168.94,422.671,164.879,423.539z"/>
<path d="M222.572,348.566c-1.235-3.963-5.45-6.175-9.411-4.939c-3.963,1.234-6.173,5.448-4.939,9.411
	c0.954,3.059,1.573,6.353,1.842,9.789c0.319,4.083,3.995,7.226,8.078,6.907c4.082-0.32,7.225-3.995,6.907-8.078
	C224.692,357.101,223.859,352.697,222.572,348.566z"/>
<path d="M217.138,378.102c-3.982-1.174-8.16,1.098-9.337,5.078c-0.979,3.316-2.249,6.568-3.774,9.667
	c-1.833,3.723-0.299,8.228,3.426,10.06c3.676,1.81,8.253,0.247,10.06-3.426c1.9-3.862,3.482-7.914,4.702-12.044
	C223.392,383.457,221.118,379.277,217.138,378.102z"/>
<path d="M157.685,270.894c1.253,0,2.524-0.314,3.693-0.975c3.191-1.805,6.507-3.518,9.854-5.09c3.757-1.764,5.372-6.24,3.607-9.997
	c-1.765-3.757-6.241-5.372-9.997-3.607c-3.689,1.732-7.345,3.62-10.864,5.611c-2.81,1.589-4.315,4.902-3.66,8.064
	C151.033,268.352,154.161,270.894,157.685,270.894z"/>
<path d="M191.889,409.443c-2.484,2.359-5.193,4.49-8.053,6.337c-3.487,2.251-4.488,6.903-2.237,10.39
	c2.219,3.439,6.948,4.46,10.39,2.237c3.642-2.352,7.091-5.065,10.25-8.065c3.009-2.858,3.132-7.614,0.275-10.624
	C199.655,406.709,194.899,406.584,191.889,409.443z"/>
<path d="M193.726,240.733c-2.027,0.542-4.057,1.122-6.033,1.723c-3.765,1.148-6.041,5.15-5.108,8.973
	c1.01,4.137,5.416,6.644,9.491,5.404c1.81-0.552,3.669-1.083,5.529-1.58c4.009-1.071,6.392-5.19,5.322-9.2
	C201.855,242.044,197.735,239.665,193.726,240.733z"/>
<path d="M31.492,495.931c-1.753-3.761-6.225-5.389-9.986-3.636c-3.761,1.753-5.39,6.224-3.636,9.986
	c0.884,1.896,1.82,3.803,2.783,5.668c1.878,3.638,6.481,5.111,10.124,3.232c3.688-1.903,5.135-6.436,3.232-10.124
	C33.137,499.369,32.291,497.644,31.492,495.931z"/>
<path d="M24.037,475.987c-0.968-3.41-1.801-6.885-2.473-10.33c-0.795-4.073-4.739-6.729-8.816-5.935
	c-4.073,0.795-6.73,4.742-5.935,8.816c0.752,3.856,1.683,7.743,2.767,11.556c1.118,3.938,5.342,6.297,9.282,5.175
	C22.855,484.135,25.172,479.979,24.037,475.987z"/>
<path d="M11.938,452.254c2.298-0.049,4.482-1.176,5.858-3.016c1.667-2.229,1.465-4.707,1.465-7.346c0-2.627,0.085-5.293,0.253-7.921
	c0.265-4.141-2.88-7.713-7.021-7.978c-4.134-0.256-7.713,2.88-7.978,7.021c-0.188,2.946-0.284,5.933-0.284,8.879
	c0,2.703-0.098,5.332,1.684,7.551C7.362,451.245,9.622,452.315,11.938,452.254z"/>
<path d="M13.606,418.571c3.987,0.938,8.098-1.61,9.035-5.595c0.807-3.428,1.768-6.877,2.856-10.249
	c1.275-3.95-0.893-8.185-4.843-9.46c-3.954-1.277-8.185,0.894-9.46,4.843c-1.213,3.759-2.285,7.604-3.183,11.428
	C7.06,413.576,9.566,417.621,13.606,418.571z"/>
<path d="M48.353,338.137c-0.769,0.733-1.531,1.479-2.29,2.236c-2.03,2.031-4.036,4.178-5.963,6.383
	c-2.731,3.124-2.413,7.872,0.711,10.604c3.082,2.695,7.91,2.371,10.604-0.711c1.707-1.953,3.483-3.853,5.276-5.647
	c0.673-0.673,1.353-1.337,2.037-1.989c3.003-2.866,3.114-7.622,0.25-10.625C56.112,335.385,51.358,335.273,48.353,338.137z"/>
<path d="M36.383,363.423c-3.535-2.173-8.163-1.069-10.338,2.465c-2.058,3.347-4.009,6.825-5.801,10.336
	c-1.886,3.697-0.417,8.223,3.281,10.108c3.652,1.863,8.249,0.366,10.108-3.281c1.61-3.156,3.364-6.282,5.214-9.29
	C41.022,370.225,39.918,365.597,36.383,363.423z"/>
<path d="M82.653,322.475c-2.128-3.562-6.742-4.725-10.305-2.597c-1.812,1.082-3.623,2.223-5.385,3.392
	c-3.458,2.296-4.402,6.959-2.107,10.417c2.264,3.411,7.002,4.372,10.417,2.107c1.565-1.038,3.173-2.052,4.783-3.013
	C83.619,330.652,84.782,326.038,82.653,322.475z"/>
<g>
</g>
<g>
</g>
<g>
</g>
<g>
</g>
<g>
</g>
<g>
</g>
<g>
</g>
<g>
</g>
<g>
</g>
<g>
</g>
<g>
</g>
<g>
</g>
<g>
</g>
<g>
</g>
<g>
</g>
</svg>
