<?xml version="1.0" encoding="utf-8"?>
<!-- Generator: Adobe Illustrator 22.1.0, SVG Export Plug-In . SVG Version: 6.00 Build 0)  -->
<svg version="1.1" id="Capa_1" xmlns="http://www.w3.org/2000/svg" xmlns:xlink="http://www.w3.org/1999/xlink" x="0px" y="0px"
	 viewBox="0 0 512 512" style="enable-background:new 0 0 512 512;" xml:space="preserve">
<g>
	<g>
		<path d="M256,0C115,0,0,115,0,256c0,142.3,116.4,256,256,256c68,0,132.3-26.7,180.8-75.2C485.3,388.3,512,324.1,512,256
			C512,115,397,0,256,0z M391,437.1c-9.5,7.1-19.5,13.4-30,18.9V407c0-8.3-6.7-15-15-15s-15,6.7-15,15v62.2
			c-23.5,8.3-48.7,12.8-75,12.8s-51.5-4.5-75-12.8V407c0-8.3-6.7-15-15-15s-15,6.7-15,15v49.1c-10.5-5.5-20.5-11.9-30-18.9V407
			c0-41.9,33.6-76,75-76c2.7,0,116.8,0,120,0c41.4,0,75,34.1,75,76V437.1z M181,226c0-41.4,33.6-75,75-75c40.5,0,73.6,32.3,75,72.5
			c-1.3,40.9-32.6,75.4-70.9,77.4C216.8,303.2,181,268.9,181,226z M421,410.3c0-61.9-44.1-103.3-93.7-108.7c2-1.9,3.9-3.9,5.7-6
			c17.6-20,28.1-46.3,28.1-74.7c0-1.1-0.1-2.1-0.3-3.1C356.5,163.7,311.2,121,256,121c-57.9,0-105,47.1-105,105
			c0,28.9,11.5,55.8,32.3,75.8c-48.9,6-92.3,47-92.3,108.5C53.2,369.8,30,315.6,30,256C30,131.4,131.4,30,256,30s226,101.4,226,226
			C482,315.6,458.8,369.8,421,410.3z"/>
	</g>
</g>
</svg>
