<?xml version="1.0" encoding="utf-8"?>
<!-- Generator: Adobe Illustrator 22.1.0, SVG Export Plug-In . SVG Version: 6.00 Build 0)  -->
<svg version="1.1" id="Capa_1" xmlns="http://www.w3.org/2000/svg" xmlns:xlink="http://www.w3.org/1999/xlink" x="0px" y="0px"
	 viewBox="0 0 72.8 52.2" style="enable-background:new 0 0 72.8 52.2;" xml:space="preserve">
<style type="text/css">
	.st0{fill:#F9F9F9;}
	.st1{fill:#FFD86E;}
	.st2{fill:none;stroke:#1D1D1B;stroke-width:2;stroke-miterlimit:10;}
</style>
<path class="st0" d="M67.9,51.2H16.7c-1.7,0-3-1.4-3-3V4c0-1.7,1.4-3,3-3h51.2c1.7,0,3,1.4,3,3v44.2C70.9,49.9,69.5,51.2,67.9,51.2z
	"/>
<path class="st1" d="M10.5,51.2H4.6c-1.5,0-2.6-1.2-2.6-2.6V3.6C1.9,2.2,3.1,1,4.6,1h5.9c1.5,0,2.6,1.2,2.6,2.6v44.9
	C13.1,50,11.9,51.2,10.5,51.2z"/>
<g id="Capa_2_1_">
	<g id="Capa_2-2">
		<path class="st2" d="M7.6,1h57.6c3.7,0,6.6,3,6.6,6.6v36.9c0,3.7-3,6.6-6.6,6.6H7.6c-3.7,0-6.6-3-6.6-6.6V7.6C1,4,4,1,7.6,1z"/>
		<path class="st2" d="M13.7,1v50.2 M30.7,1v50.2 M40.3,17.1H60 M40.3,22.8H60 M40.3,28.8H60 M40.3,35.1H60"/>
	</g>
</g>
</svg>
