<?xml version="1.0" encoding="iso-8859-1"?>
<!-- Generator: Adobe Illustrator 19.0.0, SVG Export Plug-In . SVG Version: 6.00 Build 0)  -->
<svg version="1.1" id="Capa_1" xmlns="http://www.w3.org/2000/svg" xmlns:xlink="http://www.w3.org/1999/xlink" x="0px" y="0px"
	 viewBox="0 0 470 470" style="enable-background:new 0 0 470 470;" xml:space="preserve">
<g>
	<polygon style="fill:#FFD572;" points="397.618,124.393 444.394,124.393 397.618,77.617 	"/>
	<path style="fill:#FFE3A1;" d="M382.618,77.617l-42.757,42.757c-2.929,2.928-7.678,2.928-10.606,0
		c-0.002-0.003-10.609,10.603-10.609,10.603l63.972,63.972V77.617z"/>
	<path style="fill:#FFE3A1;" d="M200.202,299.352v93.014l58.666-58.666L192.7,267.531v24.32
		C196.844,291.852,200.202,295.209,200.202,299.352z"/>
	<path style="fill:#FFE3A1;" d="M144.058,176.462c-2.934-2.934-2.934-7.682-0.005-10.612l86.626-86.626H25.607l107.845,107.845
		L144.058,176.462z"/>
	<path style="fill:#FFD572;" d="M269.475,323.092l110.036-110.036L248.787,82.331l-94.127,94.127
		c-1.464,1.464-3.384,2.196-5.303,2.196c-1.917,0-3.835-0.731-5.299-2.192l-10.606,10.607L269.475,323.092z M281.268,207.01
		c2.589,0,4.871,1.312,6.219,3.307c0.81,1.197,1.283,2.641,1.283,4.194c0,4.14-3.36,7.5-7.5,7.5c-0.776,0-1.525-0.118-2.23-0.337
		c-3.054-0.949-5.272-3.797-5.272-7.164C273.768,210.368,277.126,207.01,281.268,207.01z M261.268,247.01
		c2.589,0,4.871,1.312,6.219,3.307c0.81,1.197,1.283,2.641,1.283,4.194c0,4.14-3.36,7.5-7.5,7.5c-0.776,0-1.525-0.118-2.23-0.337
		c-3.054-0.949-5.272-3.797-5.272-7.164C253.768,250.368,257.126,247.01,261.268,247.01z"/>
	<path style="fill:#1C1918;" d="M467.803,126.589l-72.382-72.382c-0.082-0.082-0.176-0.147-0.261-0.225
		c-0.141-0.129-0.283-0.256-0.435-0.374c-0.148-0.115-0.301-0.22-0.456-0.323c-0.149-0.099-0.297-0.197-0.454-0.286
		c-0.174-0.099-0.352-0.185-0.533-0.269c-0.1-0.047-0.192-0.106-0.294-0.149c-0.056-0.023-0.115-0.035-0.172-0.056
		c-0.186-0.072-0.374-0.129-0.565-0.186c-0.167-0.05-0.333-0.1-0.502-0.138c-0.182-0.041-0.366-0.067-0.551-0.094
		c-0.179-0.026-0.356-0.053-0.536-0.067c-0.182-0.013-0.363-0.012-0.546-0.012s-0.364-0.001-0.545,0.012
		c-0.18,0.013-0.358,0.041-0.537,0.067c-0.184,0.027-0.367,0.053-0.548,0.094c-0.171,0.038-0.338,0.089-0.507,0.14
		c-0.188,0.056-0.374,0.113-0.557,0.183c-0.058,0.022-0.118,0.034-0.176,0.058c-0.105,0.043-0.199,0.104-0.301,0.152
		c-0.177,0.083-0.352,0.167-0.522,0.264c-0.16,0.09-0.311,0.19-0.462,0.291c-0.153,0.102-0.304,0.205-0.449,0.318
		c-0.153,0.119-0.296,0.247-0.438,0.377c-0.085,0.077-0.178,0.142-0.26,0.223l-55.56,55.56c-2.928,2.929-2.929,7.675-0.002,10.605
		c2.931,2.93,7.68,2.93,10.609,0.003l42.757-42.757v117.332L254.09,66.421c-0.178-0.178-0.364-0.345-0.557-0.503
		c-0.13-0.106-0.266-0.201-0.402-0.298c-0.064-0.046-0.125-0.096-0.191-0.14c-0.168-0.112-0.341-0.212-0.516-0.308
		c-0.038-0.021-0.075-0.046-0.113-0.067c-0.18-0.096-0.365-0.18-0.55-0.26c-0.038-0.016-0.075-0.037-0.113-0.052
		c-0.177-0.073-0.357-0.134-0.538-0.193c-0.052-0.017-0.102-0.038-0.155-0.054c-0.163-0.049-0.328-0.086-0.494-0.124
		c-0.074-0.017-0.147-0.039-0.221-0.054c-0.146-0.029-0.294-0.046-0.442-0.066c-0.095-0.013-0.19-0.032-0.286-0.041
		c-0.15-0.014-0.3-0.017-0.451-0.022c-0.092-0.003-0.184-0.014-0.277-0.014H7.5c-3.034,0-5.768,1.827-6.929,4.63
		c-1.161,2.803-0.519,6.028,1.626,8.174L192.7,267.531l66.168,66.168l-58.666,58.666v-93.014c0-4.143-3.358-7.5-7.5-7.5
		c-4.143,0.001-7.5,3.358-7.5,7.5v111.12c0,3.033,1.827,5.769,4.63,6.929c0.928,0.385,1.902,0.571,2.869,0.571
		c1.952,0,3.87-0.762,5.305-2.196l76.69-76.69c0.028-0.028,0.059-0.051,0.087-0.079c0.028-0.028,0.051-0.059,0.079-0.087
		l120.536-120.535c1.498-1.496,2.229-3.429,2.221-5.36v-73.632H462.5c3.034,0,5.768-1.827,6.929-4.63
		C470.59,131.96,469.948,128.734,467.803,126.589z M397.618,124.393V77.617l46.776,46.775H397.618z M230.679,79.225l-86.626,86.626
		c-2.929,2.93-2.929,7.678,0,10.607c1.468,1.465,3.386,2.196,5.303,2.196c1.919,0,3.839-0.732,5.303-2.196l94.127-94.127
		l130.725,130.725L269.475,323.092L133.452,187.069L25.607,79.225H230.679z"/>
	<path style="fill:#1C1918;" d="M259.04,261.674c0.704,0.219,1.452,0.336,2.228,0.336c4.142,0,7.5-3.358,7.5-7.5
		c0-1.553-0.472-2.996-1.281-4.193c-1.348-1.995-3.63-3.307-6.219-3.307c-4.142,0-7.5,3.358-7.5,7.5
		C253.768,257.877,255.986,260.725,259.04,261.674z"/>
	<path style="fill:#1C1918;" d="M279.04,221.674c0.704,0.219,1.452,0.336,2.228,0.336c4.142,0,7.5-3.358,7.5-7.5
		c0-1.553-0.472-2.996-1.281-4.193c-1.348-1.995-3.63-3.307-6.219-3.307c-4.142,0-7.5,3.358-7.5,7.5
		C273.768,217.877,275.986,220.725,279.04,221.674z"/>
</g>
<g>
</g>
<g>
</g>
<g>
</g>
<g>
</g>
<g>
</g>
<g>
</g>
<g>
</g>
<g>
</g>
<g>
</g>
<g>
</g>
<g>
</g>
<g>
</g>
<g>
</g>
<g>
</g>
<g>
</g>
</svg>
