<?xml version="1.0" encoding="utf-8"?>
<!-- Generator: Adobe Illustrator 22.1.0, SVG Export Plug-In . SVG Version: 6.00 Build 0)  -->
<svg version="1.1" id="Capa_1" xmlns="http://www.w3.org/2000/svg" xmlns:xlink="http://www.w3.org/1999/xlink" x="0px" y="0px"
	 viewBox="0 0 384 384" style="enable-background:new 0 0 384 384;" xml:space="preserve">
<style type="text/css">
	.st0{fill:#FFD86E;}
</style>
<circle class="st0" cx="192" cy="192" r="176"/>
<g>
	<path d="M192,384c105.9,0,192-86.1,192-192c0-8.8-7.2-16-16-16s-16,7.2-16,16c0,88.2-71.8,160-160,160S32,280.2,32,192
		S103.8,32,192,32c43,0,83.3,16.8,113.5,47.3c6.2,6.3,16.4,6.3,22.6,0.1c6.3-6.2,6.3-16.4,0.1-22.6C291.9,20.2,243.5,0,192,0
		C86.1,0,0,86.1,0,192S86.1,384,192,384z"/>
	<path d="M192,272c8.8,0,16-7.2,16-16v-48h48c8.8,0,16-7.2,16-16s-7.2-16-16-16h-48v-48c0-8.8-7.2-16-16-16s-16,7.2-16,16v48h-48
		c-8.8,0-16,7.2-16,16s7.2,16,16,16h48v48C176,264.8,183.2,272,192,272z"/>
</g>
</svg>
